<?xml version="1.0" encoding="utf-8"?>
<!-- Generator: Adobe Illustrator 16.0.3, SVG Export Plug-In . SVG Version: 6.00 Build 0)  -->
<!DOCTYPE svg PUBLIC "-//W3C//DTD SVG 1.1//EN" "http://www.w3.org/Graphics/SVG/1.1/DTD/svg11.dtd">
<svg version="1.1" xmlns="http://www.w3.org/2000/svg" xmlns:xlink="http://www.w3.org/1999/xlink" x="0px" y="0px"
	 width="30.833px" height="32.249px" viewBox="0 0 30.833 32.249" enable-background="new 0 0 30.833 32.249" xml:space="preserve">
<g id="Background" display="none">
</g>
<g id="graphic_1_" display="none">
</g>
<g id="photo">
</g>
<g id="word">
</g>
<g id="top_graphic">
</g>
<g id="icon">
	<g>
		<g>
			<path fill="none" stroke="#E9E9E9" stroke-width="2" stroke-linecap="round" stroke-linejoin="round" stroke-miterlimit="10" d="
				M22.9,8.849c0,2.268-1.001,4.266-2.598,5.666c-1.332,1.197-3.132,1.93-5.064,1.93s-3.731-0.732-5.063-1.93
				c-1.598-1.4-2.599-3.398-2.599-5.666c0-4.197,3.464-7.66,7.662-7.66C19.438,1.188,22.9,4.651,22.9,8.849z"/>
			<path fill="none" stroke="#E9E9E9" stroke-width="2" stroke-linecap="round" stroke-linejoin="round" stroke-miterlimit="10" d="
				M7.925,30.638c-6.091,0-9.12-7.318-4.896-11.707c1.948-2.025,4.396-3.563,7.146-4.416c1.332,1.197,3.131,1.93,5.063,1.93
				s3.732-0.732,5.064-1.93c3.074,0.955,5.774,2.766,7.819,5.156c3.667,4.293,0.151,10.967-5.492,10.967H7.925z"/>
		</g>
	</g>
</g>
<g id="top_menu_1" display="none">
</g>
<g id="top_menu_2" display="none">
</g>
</svg>
