<?xml version="1.0" encoding="utf-8"?>
<!-- Generator: Adobe Illustrator 16.0.3, SVG Export Plug-In . SVG Version: 6.00 Build 0)  -->
<!DOCTYPE svg PUBLIC "-//W3C//DTD SVG 1.1//EN" "http://www.w3.org/Graphics/SVG/1.1/DTD/svg11.dtd">
<svg version="1.1" xmlns="http://www.w3.org/2000/svg" xmlns:xlink="http://www.w3.org/1999/xlink" x="0px" y="0px" width="413px"
	 height="142px" viewBox="0 0 413 142" enable-background="new 0 0 413 142" xml:space="preserve">
<g id="background" display="none">
	<rect display="inline" fill="#FFFFFF" width="413" height="142"/>
</g>
<g id="Layer_1">
	<g>
		<g>
			<g>
				<path fill="#656565" d="M43.718,116.483h-7.899v-14.905h7.567v1.58h-5.821v4.958h5.385v1.569h-5.385v5.218h6.153V116.483z"/>
				<path fill="#656565" d="M59.472,116.483h-1.705v-6.07c0-2.259-0.824-3.389-2.474-3.389c-0.853,0-1.558,0.321-2.115,0.962
					c-0.558,0.641-0.837,1.45-0.837,2.427v6.07h-1.704V105.84h1.704v1.767h0.042c0.804-1.345,1.968-2.017,3.492-2.017
					c1.164,0,2.055,0.376,2.672,1.127c0.616,0.752,0.925,1.838,0.925,3.259V116.483z"/>
				<path fill="#656565" d="M68.667,116.037c0,1.746-0.352,3.092-1.055,4.038s-1.71,1.419-3.02,1.419
					c-0.485,0-0.956-0.111-1.413-0.333v-1.59c0.513,0.312,0.997,0.468,1.455,0.468c1.552,0,2.328-1.24,2.328-3.721V105.84h1.704
					V116.037z M67.836,103.137c-0.305,0-0.564-0.104-0.779-0.312c-0.215-0.208-0.322-0.471-0.322-0.79
					c0-0.318,0.107-0.583,0.322-0.795s0.475-0.317,0.779-0.317c0.312,0,0.577,0.105,0.795,0.317
					c0.219,0.211,0.327,0.477,0.327,0.795c0,0.305-0.108,0.565-0.327,0.78C68.413,103.03,68.147,103.137,67.836,103.137z"/>
				<path fill="#656565" d="M80.846,116.733c-1.572,0-2.829-0.497-3.768-1.492c-0.939-0.994-1.408-2.313-1.408-3.955
					c0-1.788,0.488-3.184,1.466-4.189c0.977-1.004,2.297-1.507,3.96-1.507c1.587,0,2.825,0.488,3.716,1.465s1.336,2.332,1.336,4.064
					c0,1.698-0.48,3.058-1.439,4.08C83.748,116.222,82.461,116.733,80.846,116.733z M80.971,107.024
					c-1.095,0-1.961,0.373-2.599,1.118s-0.956,1.772-0.956,3.082c0,1.261,0.322,2.255,0.967,2.983s1.507,1.091,2.588,1.091
					c1.102,0,1.949-0.357,2.541-1.07c0.593-0.714,0.89-1.729,0.89-3.046c0-1.33-0.297-2.356-0.89-3.077
					C82.92,107.385,82.072,107.024,80.971,107.024z"/>
				<path fill="#656565" d="M101.62,105.84l-4.896,12.348c-0.873,2.204-2.1,3.306-3.68,3.306c-0.443,0-0.813-0.045-1.111-0.135
					v-1.528c0.367,0.125,0.703,0.187,1.008,0.187c0.859,0,1.504-0.513,1.934-1.539l0.852-2.017l-4.157-10.623h1.892l2.879,8.19
					c0.035,0.104,0.107,0.375,0.219,0.811h0.063c0.034-0.167,0.104-0.43,0.208-0.79l3.024-8.211H101.62z"/>
				<path fill="#656565" d="M118.066,116.483v-14.905h4.116c5.252,0,7.879,2.422,7.879,7.266c0,2.301-0.729,4.149-2.188,5.545
					c-1.458,1.396-3.411,2.094-5.856,2.094H118.066z M119.813,103.158v11.745h2.225c1.954,0,3.475-0.523,4.563-1.569
					c1.087-1.046,1.632-2.529,1.632-4.449c0-3.818-2.031-5.727-6.092-5.727H119.813z"/>
				<path fill="#656565" d="M144.662,116.483h-1.705v-1.663h-0.041c-0.742,1.275-1.833,1.913-3.274,1.913
					c-1.061,0-1.891-0.281-2.489-0.842c-0.6-0.562-0.899-1.306-0.899-2.235c0-1.989,1.171-3.146,3.514-3.472l3.19-0.447
					c0-1.809-0.731-2.713-2.193-2.713c-1.282,0-2.438,0.437-3.472,1.31v-1.747c1.047-0.665,2.252-0.998,3.617-0.998
					c2.502,0,3.753,1.324,3.753,3.971V116.483z M142.957,111.099l-2.567,0.354c-0.79,0.111-1.386,0.307-1.788,0.587
					c-0.401,0.28-0.603,0.778-0.603,1.491c0,0.52,0.186,0.944,0.557,1.273c0.37,0.329,0.864,0.494,1.48,0.494
					c0.846,0,1.544-0.296,2.095-0.889c0.551-0.592,0.826-1.342,0.826-2.25V111.099z"/>
				<path fill="#656565" d="M153.026,103.137c-0.305,0-0.564-0.104-0.779-0.312c-0.215-0.208-0.322-0.471-0.322-0.79
					c0-0.318,0.107-0.583,0.322-0.795s0.475-0.317,0.779-0.317c0.312,0,0.577,0.105,0.795,0.317
					c0.219,0.211,0.327,0.477,0.327,0.795c0,0.305-0.108,0.565-0.327,0.78C153.604,103.03,153.338,103.137,153.026,103.137z
					 M153.857,116.483h-1.704V105.84h1.704V116.483z"/>
				<path fill="#656565" d="M163.291,116.483h-1.704v-15.758h1.704V116.483z"/>
				<path fill="#656565" d="M179.492,105.84l-4.896,12.348c-0.873,2.204-2.1,3.306-3.68,3.306c-0.443,0-0.813-0.045-1.111-0.135
					v-1.528c0.367,0.125,0.703,0.187,1.008,0.187c0.859,0,1.504-0.513,1.934-1.539l0.852-2.017l-4.157-10.623h1.892l2.879,8.19
					c0.035,0.104,0.107,0.375,0.219,0.811h0.063c0.034-0.167,0.104-0.43,0.208-0.79l3.024-8.211H179.492z"/>
				<path fill="#656565" d="M203.507,103.158h-5.821v5.155h5.385v1.569h-5.385v6.601h-1.746v-14.905h7.567V103.158z"/>
				<path fill="#656565" d="M214.832,116.733c-1.572,0-2.829-0.497-3.768-1.492c-0.939-0.994-1.408-2.313-1.408-3.955
					c0-1.788,0.488-3.184,1.466-4.189c0.977-1.004,2.297-1.507,3.96-1.507c1.587,0,2.825,0.488,3.716,1.465s1.336,2.332,1.336,4.064
					c0,1.698-0.48,3.058-1.439,4.08C217.734,116.222,216.447,116.733,214.832,116.733z M214.957,107.024
					c-1.095,0-1.961,0.373-2.599,1.118s-0.956,1.772-0.956,3.082c0,1.261,0.322,2.255,0.967,2.983s1.507,1.091,2.588,1.091
					c1.102,0,1.949-0.357,2.541-1.07c0.593-0.714,0.89-1.729,0.89-3.046c0-1.33-0.297-2.356-0.89-3.077
					C216.906,107.385,216.059,107.024,214.957,107.024z"/>
				<path fill="#656565" d="M231.584,116.733c-1.572,0-2.829-0.497-3.768-1.492c-0.939-0.994-1.408-2.313-1.408-3.955
					c0-1.788,0.488-3.184,1.466-4.189c0.977-1.004,2.297-1.507,3.96-1.507c1.587,0,2.825,0.488,3.716,1.465s1.336,2.332,1.336,4.064
					c0,1.698-0.48,3.058-1.439,4.08C234.486,116.222,233.199,116.733,231.584,116.733z M231.709,107.024
					c-1.095,0-1.961,0.373-2.599,1.118s-0.956,1.772-0.956,3.082c0,1.261,0.322,2.255,0.967,2.983s1.507,1.091,2.588,1.091
					c1.102,0,1.949-0.357,2.541-1.07c0.593-0.714,0.89-1.729,0.89-3.046c0-1.33-0.297-2.356-0.89-3.077
					C233.658,107.385,232.811,107.024,231.709,107.024z"/>
				<path fill="#656565" d="M252.972,116.483h-1.704v-1.809h-0.042c-0.79,1.372-2.01,2.058-3.658,2.058
					c-1.338,0-2.406-0.477-3.207-1.429c-0.8-0.953-1.2-2.25-1.2-3.893c0-1.76,0.443-3.17,1.33-4.23
					c0.887-1.061,2.068-1.59,3.545-1.59c1.462,0,2.525,0.575,3.19,1.725h0.042v-6.59h1.704V116.483z M251.268,111.671v-1.569
					c0-0.859-0.284-1.587-0.853-2.183c-0.568-0.596-1.289-0.894-2.162-0.894c-1.039,0-1.857,0.381-2.453,1.144
					s-0.894,1.815-0.894,3.16c0,1.227,0.286,2.195,0.857,2.905c0.571,0.71,1.339,1.065,2.303,1.065c0.949,0,1.72-0.343,2.313-1.029
					S251.268,112.717,251.268,111.671z"/>
				<path fill="#656565" d="M277.048,116.733c-2.113,0-3.806-0.696-5.077-2.089c-1.272-1.393-1.907-3.205-1.907-5.436
					c0-2.397,0.647-4.31,1.943-5.738c1.296-1.427,3.06-2.141,5.291-2.141c2.058,0,3.716,0.693,4.974,2.079
					c1.257,1.386,1.886,3.198,1.886,5.437c0,2.432-0.645,4.355-1.933,5.769C280.936,116.026,279.21,116.733,277.048,116.733z
					 M277.173,102.909c-1.566,0-2.838,0.564-3.814,1.694c-0.978,1.13-1.466,2.613-1.466,4.449c0,1.836,0.477,3.314,1.429,4.434
					c0.953,1.119,2.195,1.678,3.727,1.678c1.636,0,2.924-0.533,3.867-1.601c0.941-1.067,1.413-2.56,1.413-4.48
					c0-1.968-0.457-3.489-1.372-4.563C280.041,103.446,278.78,102.909,277.173,102.909z"/>
				<path fill="#656565" d="M296.69,107.565c-0.299-0.229-0.728-0.343-1.289-0.343c-0.728,0-1.336,0.343-1.824,1.029
					s-0.733,1.622-0.733,2.807v5.426h-1.704V105.84h1.704v2.193h0.042c0.242-0.748,0.613-1.332,1.112-1.751
					c0.499-0.419,1.057-0.628,1.674-0.628c0.443,0,0.782,0.048,1.019,0.146V107.565z"/>
				<path fill="#656565" d="M311.902,116.483h-1.704v-1.809h-0.042c-0.79,1.372-2.01,2.058-3.658,2.058
					c-1.338,0-2.406-0.477-3.207-1.429c-0.8-0.953-1.2-2.25-1.2-3.893c0-1.76,0.443-3.17,1.33-4.23
					c0.887-1.061,2.068-1.59,3.545-1.59c1.462,0,2.525,0.575,3.19,1.725h0.042v-6.59h1.704V116.483z M310.198,111.671v-1.569
					c0-0.859-0.284-1.587-0.853-2.183c-0.568-0.596-1.289-0.894-2.162-0.894c-1.039,0-1.857,0.381-2.453,1.144
					s-0.894,1.815-0.894,3.16c0,1.227,0.286,2.195,0.857,2.905c0.571,0.71,1.339,1.065,2.303,1.065c0.949,0,1.72-0.343,2.313-1.029
					S310.198,112.717,310.198,111.671z"/>
				<path fill="#656565" d="M328.188,111.588h-7.516c0.027,1.185,0.347,2.1,0.956,2.744c0.61,0.644,1.448,0.966,2.516,0.966
					c1.199,0,2.301-0.395,3.306-1.185v1.601c-0.936,0.679-2.173,1.019-3.711,1.019c-1.504,0-2.686-0.483-3.544-1.45
					c-0.859-0.966-1.289-2.326-1.289-4.08c0-1.656,0.469-3.005,1.408-4.048c0.938-1.043,2.104-1.564,3.498-1.564
					c1.393,0,2.47,0.45,3.232,1.351c0.762,0.901,1.144,2.152,1.144,3.752V111.588z M326.44,110.143
					c-0.007-0.984-0.244-1.75-0.712-2.297s-1.117-0.821-1.948-0.821c-0.805,0-1.486,0.288-2.048,0.863
					c-0.562,0.575-0.908,1.327-1.039,2.256H326.44z"/>
				<path fill="#656565" d="M340.595,107.565c-0.299-0.229-0.728-0.343-1.289-0.343c-0.728,0-1.336,0.343-1.824,1.029
					s-0.733,1.622-0.733,2.807v5.426h-1.704V105.84h1.704v2.193h0.042c0.242-0.748,0.613-1.332,1.112-1.751
					c0.499-0.419,1.057-0.628,1.674-0.628c0.443,0,0.782,0.048,1.019,0.146V107.565z"/>
				<path fill="#656565" d="M347.597,103.137c-0.305,0-0.564-0.104-0.779-0.312c-0.215-0.208-0.322-0.471-0.322-0.79
					c0-0.318,0.107-0.583,0.322-0.795s0.475-0.317,0.779-0.317c0.312,0,0.577,0.105,0.795,0.317
					c0.219,0.211,0.327,0.477,0.327,0.795c0,0.305-0.108,0.565-0.327,0.78C348.174,103.03,347.908,103.137,347.597,103.137z
					 M348.428,116.483h-1.704V105.84h1.704V116.483z"/>
				<path fill="#656565" d="M364.993,116.483h-1.705v-6.07c0-2.259-0.824-3.389-2.474-3.389c-0.853,0-1.558,0.321-2.115,0.962
					c-0.558,0.641-0.837,1.45-0.837,2.427v6.07h-1.704V105.84h1.704v1.767h0.042c0.804-1.345,1.968-2.017,3.492-2.017
					c1.164,0,2.055,0.376,2.672,1.127c0.616,0.752,0.925,1.838,0.925,3.259V116.483z"/>
				<path fill="#656565" d="M381.567,115.631c0,3.909-1.87,5.863-5.612,5.863c-1.316,0-2.467-0.25-3.451-0.749v-1.705
					c1.199,0.665,2.342,0.998,3.431,0.998c2.619,0,3.929-1.393,3.929-4.178v-1.164h-0.042c-0.811,1.358-2.03,2.037-3.658,2.037
					c-1.324,0-2.39-0.473-3.196-1.419c-0.808-0.946-1.211-2.215-1.211-3.81c0-1.809,0.435-3.246,1.305-4.313
					c0.869-1.067,2.06-1.601,3.57-1.601c1.435,0,2.498,0.575,3.19,1.725h0.042v-1.476h1.704V115.631z M379.863,111.671v-1.569
					c0-0.846-0.286-1.57-0.857-2.173c-0.572-0.603-1.284-0.904-2.136-0.904c-1.054,0-1.879,0.383-2.475,1.149
					s-0.894,1.838-0.894,3.217c0,1.185,0.286,2.133,0.857,2.843c0.571,0.71,1.329,1.065,2.271,1.065
					c0.956,0,1.733-0.339,2.333-1.019S379.863,112.731,379.863,111.671z"/>
			</g>
		</g>
		<g>
			<path fill="none" stroke="#F05C77" stroke-width="1.3408" stroke-miterlimit="10" d="M43.154,81.636h-8.168V31.421h37.996v0.781
				H35.769v48.653h6.604V58.482h23.934v-2.344H42.373V37.814h27.558v0.781H43.154v16.762h23.937v3.906H43.154V81.636z M46.635,81.28
				h-0.783V61.749h23.582v-9.091H45.852V41.365H72.63v-6.039H39.672v42.83h-0.779V34.547h34.519v7.598H46.635v9.732h23.58V62.53
				h-23.58V81.28z"/>
			<path fill="none" stroke="#F05C77" stroke-width="1.3408" stroke-miterlimit="10" d="M99.833,82.418
				c-3.551,0-6.927-0.604-10.123-1.812c-3.197-1.209-6.001-2.948-8.415-5.22c-2.417-2.274-4.299-4.877-5.647-7.814
				c-1.349-2.935-2.142-6.06-2.379-9.375l0.782-0.071c0.188,3.409,0.981,6.547,2.378,9.411c1.396,2.865,3.231,5.352,5.505,7.458
				c2.274,2.106,4.937,3.741,7.99,4.901c3.054,1.161,6.358,1.74,9.909,1.74c3.647,0,7.04-0.651,10.192-1.954
				c3.147-1.302,5.896-3.077,8.238-5.327c2.341-2.248,4.177-4.9,5.504-7.956c1.324-3.053,1.988-6.356,1.988-9.907v-0.143
				c0-3.551-0.652-6.865-1.952-9.943c-1.304-3.077-3.115-5.729-5.433-7.956c-2.322-2.225-5.045-3.977-8.168-5.255
				c-3.127-1.278-6.536-1.918-10.229-1.918c-3.55,0-6.879,0.617-9.978,1.847c-3.104,1.232-5.801,2.924-8.098,5.079
				s-4.144,4.7-5.541,7.635c-1.396,2.937-2.168,6.109-2.307,9.518l-0.782-0.071c0.141-3.552,0.934-6.831,2.379-9.837
				c1.444-3.007,3.35-5.623,5.718-7.849c2.368-2.225,5.147-3.966,8.345-5.221c3.196-1.254,6.617-1.881,10.264-1.881
				c3.79,0,7.304,0.664,10.548,1.987c3.243,1.327,6.049,3.138,8.417,5.434c2.367,2.298,4.226,5.02,5.574,8.167
				c1.354,3.151,2.024,6.571,2.024,10.264v0.143c0,3.504-0.638,6.831-1.918,9.979c-1.278,3.149-3.149,5.93-5.611,8.345
				c-2.509,2.462-5.408,4.344-8.699,5.647C107.016,81.766,103.526,82.418,99.833,82.418z M101.182,79.434v-0.78
				c2.983-0.143,5.764-0.818,8.347-2.024c2.58-1.208,4.804-2.805,6.675-4.795c1.869-1.989,3.339-4.297,4.401-6.925
				c1.07-2.628,1.6-5.434,1.6-8.417v-0.143c0-3.124-0.567-6.037-1.703-8.736c-1.138-2.699-2.7-5.042-4.688-7.032
				c-1.99-1.987-4.332-3.537-7.03-4.651c-2.699-1.112-5.638-1.67-8.809-1.67c-3.125,0-6.05,0.568-8.771,1.705
				c-2.723,1.137-5.089,2.711-7.104,4.724c-2.012,2.013-3.599,4.368-4.76,7.067c-1.16,2.699-1.739,5.611-1.739,8.736v0.142
				c0,2.983,0.521,5.778,1.563,8.382c1.042,2.604,2.486,4.889,4.333,6.854c1.845,1.965,4.035,3.541,6.569,4.724
				c2.534,1.184,5.291,1.872,8.275,2.06l-0.071,0.78c-3.033-0.188-5.86-0.898-8.489-2.13c-2.628-1.231-4.936-2.913-6.924-5.042
				c-1.989-2.131-3.494-4.522-4.51-7.174c-1.02-2.651-1.526-5.469-1.526-8.452v-0.142c0-3.125,0.555-6.084,1.669-8.879
				c1.111-2.792,2.732-5.254,4.864-7.386c2.177-2.178,4.688-3.846,7.528-5.008c2.841-1.159,5.87-1.739,9.091-1.739
				c3.267,0,6.31,0.581,9.127,1.739c2.817,1.162,5.258,2.758,7.315,4.794c2.063,2.037,3.67,4.451,4.83,7.245
				c1.16,2.795,1.74,5.824,1.74,9.091v0.143c0,3.125-0.556,6.037-1.67,8.735c-1.111,2.699-2.64,5.079-4.58,7.138
				c-1.942,2.061-4.239,3.719-6.889,4.971C107.195,78.595,104.309,79.293,101.182,79.434z M99.974,76.309
				c-2.699,0-5.219-0.497-7.563-1.492c-2.344-0.993-4.392-2.461-6.144-4.404c-1.751-1.847-3.091-3.953-4.013-6.321
				c-0.925-2.367-1.386-4.9-1.386-7.599V56.28c0-2.651,0.438-5.125,1.313-7.422c0.878-2.295,2.082-4.308,3.621-6.037
				c1.539-1.728,3.378-3.136,5.505-4.226c2.13-1.09,4.45-1.729,6.963-1.918l0.071,0.781c-2.415,0.189-4.641,0.806-6.678,1.847
				c-2.036,1.042-3.801,2.39-5.29,4.047c-1.493,1.658-2.652,3.587-3.482,5.789c-0.827,2.202-1.241,4.582-1.241,7.138v0.213
				c0,2.699,0.462,5.209,1.385,7.528c0.924,2.321,2.201,4.333,3.835,6.037c1.634,1.705,3.573,3.044,5.823,4.013
				c2.249,0.97,4.676,1.457,7.28,1.457c2.605,0,5.007-0.473,7.21-1.421c2.198-0.946,4.119-2.273,5.753-3.978
				c1.632-1.704,2.911-3.704,3.836-6.001c0.923-2.296,1.385-4.794,1.385-7.494v-0.142c0-2.557-0.428-4.947-1.278-7.174
				c-0.854-2.224-2.048-4.191-3.588-5.895c-1.539-1.705-3.337-3.078-5.398-4.119c-2.06-1.041-4.298-1.658-6.711-1.847v-0.781
				c2.557,0.189,4.913,0.828,7.065,1.918c2.157,1.089,4.025,2.521,5.612,4.296c1.586,1.776,2.829,3.824,3.729,6.144
				c0.899,2.321,1.35,4.806,1.35,7.458v0.142c0,2.795-0.486,5.399-1.458,7.813c-0.971,2.415-2.295,4.5-3.974,6.25
				c-1.684,1.752-3.684,3.127-6.003,4.12C105.183,75.813,102.674,76.309,99.974,76.309z M99.974,72.403
				c-2.129,0-4.13-0.415-6.001-1.243c-1.871-0.828-3.506-1.953-4.901-3.373c-1.395-1.422-2.486-3.102-3.269-5.045
				c-0.778-1.941-1.171-4.023-1.171-6.249v-0.143c0-2.272,0.393-4.368,1.171-6.285c0.782-1.918,1.849-3.574,3.196-4.972
				c1.351-1.396,2.948-2.498,4.796-3.303c1.847-0.805,3.857-1.208,6.038-1.208c2.083,0,4.023,0.368,5.822,1.102
				c1.799,0.735,3.387,1.751,4.76,3.054c1.374,1.303,2.473,2.853,3.304,4.652c0.827,1.8,1.314,3.765,1.456,5.896l-0.783,0.071
				c-0.14-2.036-0.614-3.907-1.421-5.613c-0.805-1.703-1.845-3.17-3.123-4.403c-1.279-1.23-2.771-2.202-4.476-2.912
				c-1.705-0.71-3.55-1.064-5.539-1.064c-2.084,0-4.004,0.379-5.754,1.136c-1.754,0.757-3.269,1.8-4.545,3.125
				c-1.279,1.325-2.287,2.911-3.021,4.759c-0.732,1.846-1.097,3.834-1.097,5.965v0.143c0,2.131,0.364,4.119,1.097,5.966
				c0.734,1.846,1.753,3.444,3.055,4.793c1.303,1.351,2.843,2.415,4.619,3.196c1.775,0.782,3.704,1.172,5.787,1.172
				c1.942,0,3.753-0.332,5.436-0.995c1.679-0.663,3.146-1.586,4.401-2.77c1.254-1.183,2.285-2.604,3.088-4.262
				c0.806-1.656,1.279-3.48,1.424-5.469l0.781,0.071c-0.19,2.084-0.699,3.99-1.526,5.717c-0.829,1.73-1.919,3.221-3.269,4.475
				c-1.35,1.255-2.912,2.238-4.688,2.949C103.847,72.048,101.965,72.403,99.974,72.403z"/>
			<path fill="none" stroke="#F05C77" stroke-width="1.3408" stroke-miterlimit="10" d="M155.16,82.418
				c-3.55,0-6.925-0.604-10.121-1.812c-3.196-1.209-6.003-2.948-8.418-5.22c-2.414-2.274-4.295-4.877-5.646-7.814
				c-1.351-2.935-2.144-6.06-2.382-9.375l0.781-0.071c0.19,3.409,0.985,6.547,2.381,9.411c1.396,2.865,3.232,5.352,5.504,7.458
				c2.274,2.106,4.938,3.741,7.99,4.901c3.058,1.161,6.36,1.74,9.91,1.74c3.646,0,7.042-0.651,10.191-1.954
				c3.147-1.302,5.896-3.077,8.238-5.327c2.345-2.248,4.179-4.9,5.505-7.956c1.325-3.053,1.989-6.356,1.989-9.907v-0.143
				c0-3.551-0.651-6.865-1.954-9.943c-1.301-3.077-3.114-5.729-5.433-7.956c-2.32-2.225-5.043-3.977-8.166-5.255
				c-3.125-1.278-6.538-1.918-10.229-1.918c-3.553,0-6.88,0.617-9.981,1.847c-3.1,1.232-5.797,2.924-8.096,5.079
				c-2.296,2.155-4.145,4.7-5.539,7.635c-1.397,2.937-2.167,6.109-2.311,9.518l-0.781-0.071c0.144-3.552,0.936-6.831,2.382-9.837
				c1.444-3.007,3.348-5.623,5.718-7.849c2.366-2.225,5.149-3.966,8.346-5.221c3.196-1.254,6.616-1.881,10.263-1.881
				c3.787,0,7.305,0.664,10.547,1.987c3.242,1.327,6.048,3.138,8.417,5.434c2.368,2.298,4.229,5.02,5.574,8.167
				c1.352,3.151,2.025,6.571,2.025,10.264v0.143c0,3.504-0.639,6.831-1.915,9.979c-1.282,3.149-3.152,5.93-5.612,8.345
				c-2.512,2.462-5.413,4.344-8.701,5.647C162.345,81.766,158.854,82.418,155.16,82.418z M156.51,79.434v-0.78
				c2.982-0.143,5.763-0.818,8.345-2.024c2.58-1.208,4.808-2.805,6.676-4.795c1.87-1.989,3.339-4.297,4.404-6.925
				s1.601-5.434,1.601-8.417v-0.143c0-3.124-0.57-6.037-1.706-8.736c-1.137-2.699-2.701-5.042-4.688-7.032
				c-1.987-1.987-4.331-3.537-7.032-4.651c-2.698-1.112-5.635-1.67-8.807-1.67c-3.126,0-6.052,0.568-8.771,1.705
				c-2.724,1.137-5.089,2.711-7.104,4.724c-2.012,2.013-3.598,4.368-4.759,7.067c-1.161,2.699-1.74,5.611-1.74,8.736v0.142
				c0,2.983,0.52,5.778,1.563,8.382c1.04,2.604,2.486,4.889,4.334,6.854c1.844,1.965,4.033,3.541,6.568,4.724
				c2.532,1.184,5.29,1.872,8.273,2.06l-0.07,0.78c-3.033-0.188-5.859-0.898-8.489-2.13c-2.627-1.231-4.934-2.913-6.923-5.042
				c-1.989-2.131-3.492-4.522-4.512-7.174c-1.017-2.651-1.526-5.469-1.526-8.452v-0.142c0-3.125,0.557-6.084,1.668-8.879
				c1.114-2.792,2.736-5.254,4.866-7.386c2.178-2.178,4.688-3.846,7.529-5.008c2.842-1.159,5.872-1.739,9.092-1.739
				c3.266,0,6.311,0.581,9.125,1.739c2.82,1.162,5.258,2.758,7.316,4.794c2.06,2.037,3.671,4.451,4.831,7.245
				c1.158,2.795,1.742,5.824,1.742,9.091v0.143c0,3.125-0.558,6.037-1.672,8.735c-1.113,2.699-2.64,5.079-4.582,7.138
				c-1.939,2.061-4.236,3.719-6.887,4.971C162.524,78.595,159.635,79.293,156.51,79.434z M155.302,76.309
				c-2.7,0-5.221-0.497-7.564-1.492c-2.344-0.993-4.392-2.461-6.144-4.404c-1.753-1.847-3.089-3.953-4.014-6.321
				c-0.924-2.367-1.385-4.9-1.385-7.599V56.28c0-2.651,0.438-5.125,1.315-7.422c0.874-2.295,2.082-4.308,3.619-6.037
				c1.538-1.728,3.375-3.136,5.509-4.226c2.129-1.09,4.448-1.729,6.958-1.918l0.07,0.781c-2.414,0.189-4.641,0.806-6.676,1.847
				c-2.036,1.042-3.799,2.39-5.291,4.047c-1.493,1.658-2.651,3.587-3.48,5.789c-0.828,2.202-1.242,4.582-1.242,7.138v0.213
				c0,2.699,0.462,5.209,1.385,7.528c0.923,2.321,2.201,4.333,3.835,6.037c1.635,1.705,3.576,3.044,5.826,4.013
				c2.247,0.97,4.673,1.457,7.278,1.457c2.604,0,5.009-0.473,7.209-1.421c2.201-0.946,4.119-2.273,5.753-3.978
				c1.636-1.704,2.913-3.704,3.837-6.001c0.923-2.296,1.385-4.794,1.385-7.494v-0.142c0-2.557-0.429-4.947-1.281-7.174
				c-0.852-2.224-2.047-4.191-3.587-5.895c-1.537-1.705-3.336-3.078-5.396-4.119c-2.061-1.041-4.297-1.658-6.712-1.847v-0.781
				c2.556,0.189,4.909,0.828,7.065,1.918c2.156,1.089,4.025,2.521,5.613,4.296c1.585,1.776,2.828,3.824,3.728,6.144
				c0.899,2.321,1.35,4.806,1.35,7.458v0.142c0,2.795-0.484,5.399-1.456,7.813c-0.972,2.415-2.297,4.5-3.977,6.25
				c-1.683,1.752-3.683,3.127-6.003,4.12C160.51,75.813,158.001,76.309,155.302,76.309z M155.302,72.403
				c-2.13,0-4.132-0.415-6.003-1.243c-1.87-0.828-3.504-1.953-4.899-3.373c-1.396-1.422-2.486-3.102-3.27-5.045
				c-0.778-1.941-1.168-4.023-1.168-6.249v-0.143c0-2.272,0.39-4.368,1.168-6.285c0.783-1.918,1.848-3.574,3.198-4.972
				c1.35-1.396,2.948-2.498,4.796-3.303c1.846-0.805,3.859-1.208,6.036-1.208c2.082,0,4.022,0.368,5.823,1.102
				c1.801,0.735,3.385,1.751,4.759,3.054c1.373,1.303,2.476,2.853,3.301,4.652c0.832,1.8,1.317,3.765,1.458,5.896l-0.781,0.071
				c-0.142-2.036-0.617-3.907-1.422-5.613c-0.803-1.703-1.846-3.17-3.122-4.403c-1.279-1.23-2.77-2.202-4.478-2.912
				c-1.705-0.71-3.549-1.064-5.538-1.064c-2.083,0-4.003,0.379-5.755,1.136c-1.751,0.757-3.265,1.8-4.545,3.125
				c-1.278,1.325-2.282,2.911-3.018,4.759c-0.736,1.846-1.102,3.834-1.102,5.965v0.143c0,2.131,0.365,4.119,1.102,5.966
				c0.735,1.846,1.751,3.444,3.054,4.793c1.303,1.351,2.841,2.415,4.617,3.196c1.774,0.782,3.704,1.172,5.788,1.172
				c1.94,0,3.752-0.332,5.435-0.995c1.679-0.663,3.147-1.586,4.403-2.77c1.252-1.183,2.284-2.604,3.089-4.262
				c0.805-1.656,1.277-3.48,1.422-5.469l0.781,0.071c-0.19,2.084-0.7,3.99-1.527,5.717c-0.829,1.73-1.919,3.221-3.268,4.475
				c-1.352,1.255-2.91,2.238-4.688,2.949C159.174,72.048,157.291,72.403,155.302,72.403z"/>
			<path fill="none" stroke="#F05C77" stroke-width="1.3408" stroke-miterlimit="10" d="M231.512,55.428
				c-0.142-3.362-0.887-6.464-2.236-9.305c-1.352-2.841-3.174-5.292-5.47-7.351c-2.299-2.06-4.996-3.668-8.098-4.831
				c-3.102-1.159-6.452-1.739-10.049-1.739h-18.893V81.28h-0.781V31.421h19.674c3.693,0,7.148,0.593,10.369,1.776
				c3.219,1.183,6.038,2.889,8.451,5.113c2.415,2.227,4.287,4.794,5.61,7.708c1.326,2.912,2.062,6.026,2.204,9.34L231.512,55.428z
				 M205.659,80.855c3.597,0,6.935-0.557,10.015-1.669c3.077-1.112,5.752-2.664,8.025-4.653c2.271-1.988,4.084-4.368,5.433-7.137
				c1.35-2.771,2.118-5.835,2.309-9.198l0.782,0.072c-0.188,3.266-0.948,6.333-2.275,9.198c-1.325,2.865-3.194,5.362-5.609,7.492
				c-2.461,2.227-5.267,3.896-8.417,5.008c-3.146,1.114-6.568,1.669-10.262,1.669h-15.769V34.617h14.134
				c3.646,0,6.972,0.509,9.979,1.526c3.006,1.02,5.646,2.522,7.92,4.51c2.272,1.99,3.977,4.31,5.113,6.96
				c1.136,2.653,1.705,5.565,1.705,8.736v0.213c0,3.22-0.604,6.178-1.812,8.878c-1.206,2.7-2.899,5.02-5.078,6.961
				c-2.178,1.942-4.782,3.445-7.813,4.509c-3.032,1.066-6.37,1.599-10.016,1.599h-10.227v-0.782h10.227
				c3.553,0,6.796-0.519,9.73-1.562c2.938-1.04,5.456-2.496,7.565-4.367c2.106-1.87,3.739-4.097,4.9-6.678
				c1.161-2.579,1.739-5.433,1.739-8.558v-0.213c0-3.124-0.578-5.977-1.739-8.558s-2.783-4.795-4.863-6.642
				c-2.086-1.846-4.595-3.267-7.53-4.261c-2.935-0.995-6.205-1.492-9.803-1.492h-13.352v45.458H205.659z M194.15,38.241v36.505
				h10.727c2.843,0,5.458-0.438,7.847-1.313c2.393-0.875,4.439-2.119,6.146-3.73c1.704-1.609,3.028-3.525,3.977-5.753
				c0.947-2.225,1.421-4.663,1.421-7.315v-0.142c0-2.699-0.462-5.149-1.385-7.352c-0.925-2.202-2.237-4.084-3.94-5.646
				c-1.708-1.563-3.755-2.77-6.144-3.623c-2.393-0.852-5.032-1.278-7.922-1.278h-7.6v-0.781h7.6c3.031,0,5.777,0.45,8.237,1.348
				c2.464,0.901,4.585,2.167,6.358,3.801c1.776,1.633,3.151,3.599,4.12,5.895c0.971,2.297,1.456,4.843,1.456,7.636v0.142
				c0,2.795-0.497,5.352-1.494,7.671c-0.99,2.32-2.376,4.31-4.152,5.966c-1.775,1.659-3.896,2.949-6.357,3.871
				c-2.464,0.924-5.185,1.386-8.168,1.386h-11.505V38.241H194.15z M205.659,71.054c2.177,0,4.154-0.344,5.931-1.03
				c1.775-0.686,3.304-1.669,4.582-2.948c1.276-1.278,2.26-2.806,2.945-4.582c0.686-1.775,1.03-3.751,1.03-5.93v-0.142
				c0-2.035-0.309-3.907-0.923-5.61c-0.617-1.706-1.503-3.172-2.662-4.405c-1.161-1.23-2.559-2.226-4.19-2.983
				c-1.634-0.757-3.446-1.207-5.437-1.35h-1.276h-8.025v29.405h-0.781V41.293h8.807h1.348c2.085,0.144,3.979,0.617,5.683,1.42
				c1.706,0.807,3.173,1.871,4.404,3.197c1.23,1.326,2.178,2.876,2.842,4.651c0.662,1.776,0.993,3.729,0.993,5.86v0.142
				c0,2.273-0.366,4.345-1.101,6.214c-0.735,1.871-1.774,3.481-3.126,4.83c-1.348,1.35-2.959,2.392-4.83,3.126
				c-1.869,0.734-3.941,1.1-6.213,1.1h-5.255v-0.781H205.659z"/>
			<path fill="none" stroke="#F05C77" stroke-width="1.3408" stroke-miterlimit="10" d="M245.148,81.636h-8.167V31.848h0.781v49.008
				h6.606V34.972h0.779V81.636z M248.629,81.28h-0.779V32.202h-6.604v45.954h-0.782V31.421h8.165V81.28z"/>
			<path fill="none" stroke="#F05C77" stroke-width="1.3408" stroke-miterlimit="10" d="M281.373,82.063h-10.155L251.115,32.06
				l0.782-0.354l19.887,49.575h9.018l19.677-49.006h-6.604l-17.401,43.751l-16.266-40.912l0.71-0.284l15.556,39.064l16.833-42.402
				h8.311L281.373,82.063z M273.773,78.582l-18.968-47.09h8.952L276.4,65.585l12.571-33.809l0.711,0.213L276.4,67.787l-13.14-35.513
				h-7.243l18.251,45.527h4.405l17.188-42.972l0.782,0.284L279.17,78.582H273.773z"/>
			<path fill="none" stroke="#F05C77" stroke-width="1.3408" stroke-miterlimit="10" d="M340.673,81.14l-0.71,0.284l-21.097-49.576
				h-9.446l-20.882,49.008h6.606l18.822-44.249l17.614,41.408l-0.71,0.284l-4.689-10.939h-21.875v-0.78h21.52l-11.859-27.983
				l-10.583,24.929h18.68v0.781h-19.034l-7.388,17.331h-8.312l21.521-50.571h10.583L340.673,81.14z M316.666,34.191l20.172,47.445
				h-8.097l-4.546-11.08h-20.387l-4.4,10.867l-0.713-0.284l4.616-11.364h21.379l4.546,11.08h6.464l-19.533-45.883h-4.19
				l-18.396,43.326l-0.78-0.284l18.68-43.823H316.666z M306.865,60.967l7.173-17.471l7.102,17.471H306.865z M314.038,45.556
				L308,60.187h12.002L314.038,45.556z"/>
			<path fill="none" stroke="#F05C77" stroke-width="1.3408" stroke-miterlimit="10" d="M381.883,81.636h-36.082V31.421h8.167
				v43.112h25.216v0.782h-25.996V32.202h-6.604v48.653h35.3V81.636z M382.238,78.511h-32.53V34.972h0.78v42.756h30.968v-5.965
				h-24.791V31.848h0.784v39.135h24.789V78.511z"/>
		</g>
	</g>
</g>
</svg>
