<?xml version="1.0" encoding="utf-8"?>
<!-- Generator: Adobe Illustrator 16.0.3, SVG Export Plug-In . SVG Version: 6.00 Build 0)  -->
<!DOCTYPE svg PUBLIC "-//W3C//DTD SVG 1.1//EN" "http://www.w3.org/Graphics/SVG/1.1/DTD/svg11.dtd">
<svg version="1.1" xmlns="http://www.w3.org/2000/svg" xmlns:xlink="http://www.w3.org/1999/xlink" x="0px" y="0px"
	 width="106.816px" height="100.052px" viewBox="0 0 106.816 100.052" enable-background="new 0 0 106.816 100.052"
	 xml:space="preserve">
<g id="Background">
</g>
<g id="graphic_1_" display="none">
</g>
<g id="photo">
</g>
<g id="word">
</g>
<g id="top_graphic">
</g>
<g id="icon">
	<g>
		
			<path id="XMLID_112_" fill="none" stroke="#70D1B2" stroke-width="4" stroke-linecap="round" stroke-linejoin="round" stroke-miterlimit="10" d="
			M4.087,67.306c-2.4-2.01-2.701-6.249-1.053-8.429c1.977-2.616,5.43-3.828,7.789-2.359c1.151,0.718,4.199,2.742,4.199,2.742
			c0.027,0.023,0.059,0.047,0.084,0.063l22.349,15.451c0.194,0.133,0.404,0.229,0.628,0.288c0.816,0.212,1.746,0.286,2.805,0.219
			c0.12-0.007,0.242-0.022,0.359-0.057c1.291-0.322,8.442-2.33,14.222-3.964l0.397-0.109c1.768-0.545,3.525-1.039,5.262-1.485
			l1.455-0.413c2.156-0.605,3.691-1.043,4.067-1.15c0.158-0.045,0.335-0.082,0.459-0.195c1.696-1.516,2.464-3.179,2.124-6.18
			c-0.338-2.963-2.848-4.605-4.715-4.963c-0.113-0.021-0.225-0.031-0.339-0.031h-8.651c-3.042,0-4.324-2.397-4.479-3.652
			c-0.269-2.186,1.122-5.151,3.483-5.059h10.635c1.953-0.059,4.356-0.093,7.334-0.093c5.955,0,10.082,2.157,13.653,4.815
			c0.933,0.689,1.837,1.41,2.737,2.121c4.004,3.166,10.145,7.08,15.896,7.707v18.096l0.027,2.109
			c-0.017,0.084-0.021,0.172-0.027,0.263c-2.052,0.233-6.732,0.789-9.976,1.658c-0.071,0.023-0.149,0.044-0.217,0.071l-0.712,0.285
			c-10.55,2.77-31.787,8.52-47.778,12.859l-0.114,0.033c-0.959,0.189-1.795,0.131-2.83-0.24l-0.16-0.071L8.187,70.726
			C8.187,70.726,4.106,67.322,4.087,67.306z"/>
		<g id="XMLID_109_">
			
				<rect id="XMLID_111_" x="29.704" y="2" fill="none" stroke="#70D1B2" stroke-width="4" stroke-linecap="round" stroke-linejoin="round" stroke-miterlimit="10" width="39.548" height="39.547"/>
			
				<polygon id="XMLID_110_" fill="none" stroke="#70D1B2" stroke-width="4" stroke-linecap="round" stroke-linejoin="round" stroke-miterlimit="10" points="
				55.593,21.221 49.48,16.275 43.363,21.221 43.363,2 55.593,2 			"/>
		</g>
	</g>
</g>
<g id="top_menu_1" display="none">
</g>
<g id="top_menu_2" display="none">
</g>
</svg>
