<?xml version="1.0" encoding="utf-8"?>
<!-- Generator: Adobe Illustrator 16.0.3, SVG Export Plug-In . SVG Version: 6.00 Build 0)  -->
<!DOCTYPE svg PUBLIC "-//W3C//DTD SVG 1.1//EN" "http://www.w3.org/Graphics/SVG/1.1/DTD/svg11.dtd">
<svg version="1.1" xmlns="http://www.w3.org/2000/svg" xmlns:xlink="http://www.w3.org/1999/xlink" x="0px" y="0px" width="32px"
	 height="32px" viewBox="0 0 32 32" enable-background="new 0 0 32 32" xml:space="preserve">
<g id="Background" display="none">
</g>
<g id="graphic_1_" display="none">
</g>
<g id="photo">
</g>
<g id="word">
</g>
<g id="top_graphic">
</g>
<g id="icon">
	<g>
		<g>
			
				<polyline fill="none" stroke="#E9E9E9" stroke-width="2" stroke-linecap="round" stroke-linejoin="round" stroke-miterlimit="10" points="
				18.29,26.502 19.657,22.923 22.301,15.998 26.543,26.502 			"/>
			
				<line fill="none" stroke="#E9E9E9" stroke-width="2" stroke-linecap="round" stroke-linejoin="round" stroke-miterlimit="10" x1="25.063" y1="22.842" x2="19.657" y2="22.923"/>
		</g>
		
			<polyline fill="none" stroke="#E9E9E9" stroke-width="2" stroke-linecap="round" stroke-linejoin="round" stroke-miterlimit="10" points="
			10.539,4.451 11.348,7 5.604,7 14.406,7 17,7 		"/>
		<path fill="none" stroke="#E9E9E9" stroke-width="2" stroke-linecap="round" stroke-linejoin="round" stroke-miterlimit="10" d="
			M5.846,14.98c0,0,6.787,0.102,8.314-7.851"/>
		<path fill="none" stroke="#E9E9E9" stroke-width="2" stroke-linecap="round" stroke-linejoin="round" stroke-miterlimit="10" d="
			M16.34,14.98c0,0-4.022,0.742-7.614-5.333"/>
		<path fill="none" stroke="#E9E9E9" stroke-width="2" stroke-linecap="round" stroke-linejoin="round" stroke-miterlimit="10" d="
			M20,13.988C20,17.309,17.309,20,13.988,20H7.012C3.691,20,1,17.309,1,13.988V7.012C1,3.691,3.691,1,7.012,1h6.977
			C17.309,1,20,3.691,20,7.012V13.988z"/>
		<path fill="none" stroke="#E9E9E9" stroke-width="2" stroke-linecap="round" stroke-linejoin="round" stroke-miterlimit="10" d="
			M21,12h4.643C28.963,12,31,14.289,31,17.609v6.514C31,27.442,28.963,31,25.643,31H19.13C15.812,31,13,27.442,13,24.123V19"/>
	</g>
</g>
<g id="top_menu_1" display="none">
</g>
<g id="top_menu_2" display="none">
</g>
</svg>
