<?xml version="1.0" encoding="utf-8"?>
<!-- Generator: Adobe Illustrator 16.0.3, SVG Export Plug-In . SVG Version: 6.00 Build 0)  -->
<!DOCTYPE svg PUBLIC "-//W3C//DTD SVG 1.1//EN" "http://www.w3.org/Graphics/SVG/1.1/DTD/svg11.dtd">
<svg version="1.1" xmlns="http://www.w3.org/2000/svg" xmlns:xlink="http://www.w3.org/1999/xlink" x="0px" y="0px"
	 width="113.833px" height="106.164px" viewBox="0 0 113.833 106.164" enable-background="new 0 0 113.833 106.164"
	 xml:space="preserve">
<g id="Background">
</g>
<g id="graphic_1_">
</g>
<g id="photo">
</g>
<g id="word">
</g>
<g id="top_graphic">
</g>
<g id="icon">
	<path fill="none" stroke="#70D1B2" stroke-width="4" stroke-linecap="round" stroke-linejoin="round" stroke-miterlimit="10" d="
		M96,42.164H35c-1.657,0-3,1.344-3,3v3c0,1.656,1.343,3,3,3h4.2l4.8,48c0,1.656,1.343,3,3,3h37c1.657,0,3-1.344,3-3l4.8-48H96
		c1.657,0,3-1.344,3-3v-3C99,43.508,97.657,42.164,96,42.164z"/>
	
		<line fill="none" stroke="#70D1B2" stroke-width="4" stroke-linecap="round" stroke-linejoin="round" stroke-miterlimit="10" x1="66" y1="56.164" x2="66" y2="92.164"/>
	
		<line fill="none" stroke="#70D1B2" stroke-width="4" stroke-linecap="round" stroke-linejoin="round" stroke-miterlimit="10" x1="80" y1="56.164" x2="77" y2="92.164"/>
	
		<line fill="none" stroke="#70D1B2" stroke-width="4" stroke-linecap="round" stroke-linejoin="round" stroke-miterlimit="10" x1="53" y1="56.164" x2="55" y2="92.164"/>
	
		<rect x="61" y="19.164" fill="none" stroke="#70D1B2" stroke-width="4" stroke-linecap="round" stroke-linejoin="round" stroke-miterlimit="10" width="9" height="6"/>
	<path fill="none" stroke="#70D1B2" stroke-width="4" stroke-linecap="round" stroke-linejoin="round" stroke-miterlimit="10" d="
		M87,42.164v-1.113c0-8.697-7.11-15.887-15.806-15.887H58.746C50.05,25.164,43,32.354,43,41.051v1.113"/>
	<path fill="none" stroke="#70D1B2" stroke-width="4" stroke-linecap="round" stroke-linejoin="round" stroke-miterlimit="10" d="
		M75,12.164c0-1.104-0.896-2-2-2l-8,2.025l-8-2.025c-1.104,0-2,0.896-2,2l6,7h9L75,12.164z"/>
	<g>
		<path fill="none" stroke="#70D1B2" stroke-width="4" stroke-linecap="round" stroke-linejoin="round" stroke-miterlimit="10" d="
			M46.72,3.027c-0.839-0.717-2.102-0.619-2.82,0.221L3.619,50.379C2.902,51.22,3,52.481,3.84,53.199l3.04,2.599
			c0.84,0.718,2.103,0.62,2.82-0.221L49.982,8.446c0.718-0.841,0.619-2.103-0.221-2.82L46.72,3.027z"/>
		<path fill="none" stroke="#70D1B2" stroke-width="4" stroke-linecap="round" stroke-linejoin="round" stroke-miterlimit="10" d="
			M32.206,16.932l-3.801-3.249c-2.1-1.794-5.255-1.547-7.05,0.552L10.311,27.158c-1.794,2.1-1.547,5.256,0.552,7.05l3.041,2.599"/>
	</g>
</g>
<g id="top_menu_1">
</g>
<g id="top_menu_2">
</g>
</svg>
