<?xml version="1.0" encoding="utf-8"?>
<!-- Generator: Adobe Illustrator 16.0.3, SVG Export Plug-In . SVG Version: 6.00 Build 0)  -->
<!DOCTYPE svg PUBLIC "-//W3C//DTD SVG 1.1//EN" "http://www.w3.org/Graphics/SVG/1.1/DTD/svg11.dtd">
<svg version="1.1" xmlns="http://www.w3.org/2000/svg" xmlns:xlink="http://www.w3.org/1999/xlink" x="0px" y="0px"
	 width="113.833px" height="106.164px" viewBox="0 0 113.833 106.164" enable-background="new 0 0 113.833 106.164"
	 xml:space="preserve">
<g id="Background">
</g>
<g id="graphic_1_">
</g>
<g id="photo">
</g>
<g id="word">
</g>
<g id="top_graphic">
</g>
<g id="icon">
	<g>
		<g>
			<g id="XMLID_187_">
				
					<rect id="XMLID_189_" x="6.925" y="9.563" fill="none" stroke="#70D1B2" stroke-width="4" stroke-linecap="round" stroke-linejoin="round" stroke-miterlimit="10" width="32.127" height="29.191"/>
				
					<polygon id="XMLID_188_" fill="none" stroke="#70D1B2" stroke-width="4" stroke-linecap="round" stroke-linejoin="round" stroke-miterlimit="10" points="
					27.956,18.185 22.989,14.533 18.02,18.185 18.02,9.563 27.956,9.563 				"/>
			</g>
			<g id="XMLID_184_">
				
					<rect id="XMLID_186_" x="51.682" y="9.484" fill="none" stroke="#70D1B2" stroke-width="4" stroke-linecap="round" stroke-linejoin="round" stroke-miterlimit="10" width="31.614" height="28.728"/>
				
					<polygon id="XMLID_185_" fill="none" stroke="#70D1B2" stroke-width="4" stroke-linecap="round" stroke-linejoin="round" stroke-miterlimit="10" points="
					72.376,17.969 67.49,14.377 62.6,17.969 62.6,9.484 72.376,9.484 				"/>
			</g>
			<g id="XMLID_181_">
				
					<rect id="XMLID_183_" x="6.925" y="51.574" fill="none" stroke="#70D1B2" stroke-width="4" stroke-linecap="round" stroke-linejoin="round" stroke-miterlimit="10" width="32.127" height="29.191"/>
				
					<polygon id="XMLID_182_" fill="none" stroke="#70D1B2" stroke-width="4" stroke-linecap="round" stroke-linejoin="round" stroke-miterlimit="10" points="
					27.956,60.195 22.989,56.545 18.02,60.195 18.02,51.574 27.956,51.574 				"/>
			</g>
			
				<line fill="none" stroke="#70D1B2" stroke-width="4" stroke-linecap="round" stroke-linejoin="round" stroke-miterlimit="10" x1="59.833" y1="45" x2="4.833" y2="45"/>
			
				<line fill="none" stroke="#70D1B2" stroke-width="4" stroke-linecap="round" stroke-linejoin="round" stroke-miterlimit="10" x1="44.833" y1="87" x2="4.833" y2="87"/>
			
				<line fill="none" stroke="#70D1B2" stroke-width="4" stroke-linecap="round" stroke-linejoin="round" stroke-miterlimit="10" x1="85.833" y1="3" x2="4.833" y2="3"/>
			
				<line fill="none" stroke="#70D1B2" stroke-width="4" stroke-linecap="round" stroke-linejoin="round" stroke-miterlimit="10" x1="44.833" y1="3" x2="44.833" y2="87"/>
		</g>
	</g>
	<g>
		<path fill="none" stroke="#70D1B2" stroke-width="4" stroke-linecap="round" stroke-linejoin="round" stroke-miterlimit="10" d="
			M109.167,97.894c0.541,0.54,0.543,1.414,0.002,1.956l-2.934,2.932c-0.54,0.542-1.414,0.54-1.953,0L92.373,90.875
			c-0.54-0.541-0.541-1.416,0-1.955l2.933-2.935c0.539-0.54,1.415-0.538,1.955,0L109.167,97.894z"/>
		
			<circle fill="none" stroke="#70D1B2" stroke-width="4" stroke-linecap="round" stroke-linejoin="round" stroke-miterlimit="10" cx="74.095" cy="65.02" r="20.186"/>
		
			<line fill="none" stroke="#70D1B2" stroke-width="4" stroke-linecap="round" stroke-linejoin="round" stroke-miterlimit="10" x1="88.167" y1="80.111" x2="94.28" y2="87.012"/>
	</g>
	
		<text transform="matrix(0.9719 -0.2353 0.2353 0.9719 62.8279 74.9072)" fill="#70D1B2" stroke="#70D1B2" stroke-width="1.4067" stroke-linecap="round" stroke-linejoin="round" stroke-miterlimit="10" font-family="'MyriadPro-Regular'" font-size="17.4455">1</text>
	
		<text transform="matrix(0.9676 0.2525 -0.2525 0.9676 70.625 60.9033)" fill="#70D1B2" stroke="#70D1B2" stroke-width="1.4067" stroke-linecap="round" stroke-linejoin="round" stroke-miterlimit="10" font-family="'MyriadPro-Regular'" font-size="17.4455">2</text>
	
		<text transform="matrix(0.9694 -0.2457 0.2457 0.9694 77.3125 79.2227)" fill="#70D1B2" stroke="#70D1B2" stroke-width="1.4067" stroke-linecap="round" stroke-linejoin="round" stroke-miterlimit="10" font-family="'MyriadPro-Regular'" font-size="17.4455">3</text>
</g>
<g id="top_menu_1">
</g>
<g id="top_menu_2">
</g>
</svg>
