<?xml version="1.0" encoding="utf-8"?>
<!-- Generator: Adobe Illustrator 16.0.3, SVG Export Plug-In . SVG Version: 6.00 Build 0)  -->
<!DOCTYPE svg PUBLIC "-//W3C//DTD SVG 1.1//EN" "http://www.w3.org/Graphics/SVG/1.1/DTD/svg11.dtd">
<svg version="1.1" xmlns="http://www.w3.org/2000/svg" xmlns:xlink="http://www.w3.org/1999/xlink" x="0px" y="0px"
	 width="115.662px" height="105.473px" viewBox="0 0 115.662 105.473" enable-background="new 0 0 115.662 105.473"
	 xml:space="preserve">
<g id="Background">
</g>
<g id="graphic_1_" display="none">
</g>
<g id="photo">
</g>
<g id="word">
</g>
<g id="top_graphic">
</g>
<g id="icon">
	<g>
		<g id="XMLID_100_">
			
				<rect id="XMLID_102_" x="2" y="2" fill="none" stroke="#70D1B2" stroke-width="4" stroke-linecap="round" stroke-linejoin="round" stroke-miterlimit="10" width="40.408" height="40.405"/>
			
				<polygon id="XMLID_101_" fill="none" stroke="#70D1B2" stroke-width="4" stroke-linecap="round" stroke-linejoin="round" stroke-miterlimit="10" points="
				28.451,21.638 22.205,16.585 15.955,21.638 15.955,2 28.451,2 			"/>
		</g>
		<g id="XMLID_97_">
			
				<rect id="XMLID_99_" x="73.256" y="19.853" fill="none" stroke="#70D1B2" stroke-width="4" stroke-linecap="round" stroke-linejoin="round" stroke-miterlimit="10" width="40.406" height="40.405"/>
			
				<polygon id="XMLID_98_" fill="none" stroke="#70D1B2" stroke-width="4" stroke-linecap="round" stroke-linejoin="round" stroke-miterlimit="10" points="
				99.706,44.682 93.461,53.022 87.211,44.682 87.211,19.853 99.706,19.853 			"/>
		</g>
		<g>
			<path fill="none" stroke="#70D1B2" stroke-width="4" stroke-linecap="round" stroke-linejoin="round" stroke-miterlimit="10" d="
				M50.648,13.768C67.46,2.429,75.911,5.347,87.211,11.818"/>
			
				<polyline fill="none" stroke="#70D1B2" stroke-width="4" stroke-linecap="round" stroke-linejoin="round" stroke-miterlimit="10" points="
				59.114,17.035 50.648,13.768 53.897,5.347 			"/>
		</g>
		<g>
			<path fill="none" stroke="#70D1B2" stroke-width="4" stroke-linecap="round" stroke-linejoin="round" stroke-miterlimit="10" d="
				M42.417,90.816c-10.594-1.809-22.824-7.958-27.931-17.189"/>
			
				<polyline fill="none" stroke="#70D1B2" stroke-width="4" stroke-linecap="round" stroke-linejoin="round" stroke-miterlimit="10" points="
				38.054,82.858 42.417,90.816 34.502,95.156 			"/>
		</g>
		<g>
			<g id="XMLID_91_">
				
					<path id="XMLID_96_" fill="none" stroke="#70D1B2" stroke-width="4" stroke-linecap="round" stroke-linejoin="round" stroke-miterlimit="10" d="
					M63.176,50.326c5.717,5.714,5.708,14.978-0.003,20.691c-5.714,5.713-14.97,5.713-20.686,0
					c-5.71-5.714-5.719-14.978-0.001-20.691C48.194,44.614,57.466,44.614,63.176,50.326z"/>
				
					<path id="XMLID_95_" fill="none" stroke="#70D1B2" stroke-width="4" stroke-linecap="round" stroke-linejoin="round" stroke-miterlimit="10" d="
					M63.176,50.326c5.717,5.714,5.708,14.978-0.003,20.691c-5.714,5.713-14.97,5.713-20.686,0
					c-5.71-5.714-5.719-14.978-0.001-20.691C48.194,44.614,57.466,44.614,63.176,50.326z"/>
				
					<path id="XMLID_92_" fill="none" stroke="#70D1B2" stroke-width="4" stroke-linecap="round" stroke-linejoin="round" stroke-miterlimit="10" d="
					M67.412,46.095c-8.054-8.053-21.109-8.053-29.164,0c-8.054,8.053-8.054,21.108,0,29.163c7.014,7.014,17.824,7.918,25.814,2.706
					l8.669,8.671l4.721-4.829l-8.396-8.401C75.424,65.313,74.872,53.557,67.412,46.095z M42.487,71.018
					c-5.71-5.714-5.719-14.978-0.001-20.691c5.708-5.712,14.979-5.712,20.689,0c5.717,5.714,5.708,14.978-0.003,20.691
					C57.459,76.73,48.203,76.73,42.487,71.018z"/>
			</g>
			<path fill="none" stroke="#70D1B2" stroke-width="4" stroke-linecap="round" stroke-linejoin="round" stroke-miterlimit="10" d="
				M94.238,95.801c0.784,0.783,0.787,2.051,0.003,2.834l-4.253,4.25c-0.782,0.785-2.05,0.783-2.831,0l-14.17-14.167
				c-0.781-0.782-0.784-2.052,0-2.834l4.252-4.253c0.781-0.782,2.05-0.779,2.833,0L94.238,95.801z"/>
		</g>
	</g>
</g>
<g id="top_menu_1" display="none">
</g>
<g id="top_menu_2" display="none">
</g>
</svg>
