<?xml version="1.0" encoding="utf-8"?>
<!-- Generator: Adobe Illustrator 16.0.3, SVG Export Plug-In . SVG Version: 6.00 Build 0)  -->
<!DOCTYPE svg PUBLIC "-//W3C//DTD SVG 1.1//EN" "http://www.w3.org/Graphics/SVG/1.1/DTD/svg11.dtd">
<svg version="1.1" xmlns="http://www.w3.org/2000/svg" xmlns:xlink="http://www.w3.org/1999/xlink" x="0px" y="0px"
	 width="32.598px" height="33.521px" viewBox="0 0 32.598 33.521" enable-background="new 0 0 32.598 33.521" xml:space="preserve">
<g id="Background" display="none">
</g>
<g id="graphic_1_" display="none">
</g>
<g id="photo">
</g>
<g id="word">
</g>
<g id="top_graphic">
</g>
<g id="icon">
	<g>
		<g>
			<path fill="none" stroke="#339DD2" stroke-width="3" stroke-linecap="round" stroke-linejoin="round" stroke-miterlimit="10" d="
				M24.131,9.439c0,2.35-1.038,4.422-2.693,5.871c-1.38,1.242-3.244,2.002-5.248,2.002c-2.003,0-3.867-0.76-5.248-2.002
				c-1.656-1.449-2.693-3.521-2.693-5.871c0-4.349,3.59-7.939,7.941-7.939S24.131,5.091,24.131,9.439z"/>
			<path fill="none" stroke="#339DD2" stroke-width="3" stroke-linecap="round" stroke-linejoin="round" stroke-miterlimit="10" d="
				M8.609,32.021c-6.313,0-9.451-7.584-5.074-12.134c2.02-2.099,4.557-3.692,7.406-4.577c1.381,1.242,3.245,2.002,5.248,2.002
				c2.004,0,3.868-0.76,5.248-2.002c3.186,0.99,5.984,2.867,8.104,5.346c3.801,4.447,0.158,11.365-5.691,11.365H8.609z"/>
		</g>
	</g>
</g>
<g id="top_menu_1" display="none">
</g>
<g id="top_menu_2" display="none">
</g>
</svg>
