<?xml version="1.0" encoding="utf-8"?>
<!-- Generator: Adobe Illustrator 16.0.3, SVG Export Plug-In . SVG Version: 6.00 Build 0)  -->
<!DOCTYPE svg PUBLIC "-//W3C//DTD SVG 1.1//EN" "http://www.w3.org/Graphics/SVG/1.1/DTD/svg11.dtd">
<svg version="1.1" xmlns="http://www.w3.org/2000/svg" xmlns:xlink="http://www.w3.org/1999/xlink" x="0px" y="0px"
	 width="113.833px" height="106.164px" viewBox="0 0 113.833 106.164" enable-background="new 0 0 113.833 106.164"
	 xml:space="preserve">
<g id="Background">
</g>
<g id="graphic_1_">
</g>
<g id="photo">
</g>
<g id="word">
</g>
<g id="top_graphic">
</g>
<g id="icon">
	<g>
		<path fill="none" stroke="#70D1B2" stroke-width="4" stroke-linecap="round" stroke-linejoin="round" stroke-miterlimit="10" d="
			M13.859,67.493c4.874-2.61,9.075-4.603,13.689-6.052c0.998-0.308,1.947-0.553,2.839-0.738c1.64-0.32,4.001-0.489,6.809-0.475
			c2.01,0,4.231,0.108,6.564,0.293c1.364,0.118,2.759,0.26,4.172,0.444c2.177,0.276,4.37,0.628,6.531,1.069
			c1.445,0.295,2.856,0.616,4.237,0.984c2.253,0.613,4.403,1.319,6.317,2.149c1.535,0.642,2.927,1.365,4.128,2.16v0.015
			c2.438,1.613,4.063,3.545,4.415,5.799c0.199,1.258,0.092,2.301-0.275,3.16c-3.006,7.102-23.423-1.32-27.578-2.411"/>
		<path fill="none" stroke="#70D1B2" stroke-width="4" stroke-linecap="round" stroke-linejoin="round" stroke-miterlimit="10" d="
			M27.566,89.64c12.922-3.815,20.979,5.222,37.636,3.976c10.661-0.782,45.617-22.729,45.586-27.821
			c-0.023-3.509-6.09-1.747-9.971-1.24c-0.06,0-0.108,0-0.169,0.017c-3.847,0.536-8.882,2.115-13.76,4.17
			c-2.313,0.965-4.602,2.041-6.699,3.162c-1.444,0.766-2.792,1.546-4.019,2.344c-1.074,0.689-2.044,1.383-2.884,2.057"/>
		
			<polygon fill="none" stroke="#70D1B2" stroke-width="4" stroke-linecap="round" stroke-linejoin="round" stroke-miterlimit="10" points="
			28.323,90.863 23.461,95.287 12.508,101.364 3.093,68.978 13.155,66.355 26.77,88.354 		"/>
		<path fill="none" stroke="#70D1B2" stroke-width="4" stroke-linecap="round" stroke-linejoin="round" stroke-miterlimit="10" d="
			M16.973,87.225c1.008-0.114,1.91,0.598,2.023,1.615c0.116,1.006-0.598,1.907-1.614,2.021c-1.007,0.115-1.909-0.607-2.025-1.614
			C15.244,88.238,15.965,87.338,16.973,87.225z"/>
		
			<polyline fill="none" stroke="#70D1B2" stroke-width="4" stroke-linecap="round" stroke-linejoin="round" stroke-miterlimit="10" points="
			80.189,71.902 80.189,33.035 86.781,33.035 86.781,68.48 		"/>
		
			<polyline fill="none" stroke="#70D1B2" stroke-width="4" stroke-linecap="round" stroke-linejoin="round" stroke-miterlimit="10" points="
			69.453,66.916 69.453,37.797 76.018,37.797 76.018,74.001 		"/>
		
			<polyline fill="none" stroke="#70D1B2" stroke-width="4" stroke-linecap="round" stroke-linejoin="round" stroke-miterlimit="10" points="
			58.701,63.065 58.701,63.02 58.701,45.811 65.265,45.811 65.265,64.586 		"/>
		
			<polyline fill="none" stroke="#70D1B2" stroke-width="4" stroke-linecap="round" stroke-linejoin="round" stroke-miterlimit="10" points="
			47.948,60.872 47.948,40.99 54.513,40.99 54.513,61.84 		"/>
		
			<polyline fill="none" stroke="#70D1B2" stroke-width="4" stroke-linecap="round" stroke-linejoin="round" stroke-miterlimit="10" points="
			37.197,60.337 37.197,60.229 37.197,54.447 43.778,54.447 43.778,60.428 		"/>
		<path fill="none" stroke="#70D1B2" stroke-width="4" stroke-linecap="round" stroke-linejoin="round" stroke-miterlimit="10" d="
			M24.799,60.32c-0.016-0.032-0.034-0.085-0.034-0.114c-1.286-3.892-1.865-8.079-1.865-12.381C22.9,24.711,41.647,6,64.744,6
			c23.097,0,41.825,18.711,41.825,41.825c0,5.573-1.09,10.882-3.052,15.727c0,0.018-0.019,0.018-0.019,0.034"/>
	</g>
	
		<polyline fill="none" stroke="#70D1B2" stroke-width="4" stroke-linecap="round" stroke-linejoin="round" stroke-miterlimit="10" points="
		83.638,21.706 72.658,29.9 62.5,34.722 49.724,33.035 40.487,40.99 	"/>
	
		<polyline fill="none" stroke="#70D1B2" stroke-width="4" stroke-linecap="round" stroke-linejoin="round" stroke-miterlimit="10" points="
		77.833,21 83.649,21 83.624,26.488 	"/>
</g>
<g id="top_menu_1">
</g>
<g id="top_menu_2">
</g>
</svg>
